<?xml version="1.0" standalone="no"?>
<!DOCTYPE svg PUBLIC "-//W3C//DTD SVG 20010904//EN"
 "http://www.w3.org/TR/2001/REC-SVG-20010904/DTD/svg10.dtd">
<svg version="1.0" xmlns="http://www.w3.org/2000/svg"
 width="640.000000pt" height="320.000000pt" viewBox="0 0 640.000000 320.000000"
 preserveAspectRatio="xMidYMid meet">

<g transform="translate(0.000000,320.000000) scale(0.100000,-0.100000)"
fill="#000000" stroke="none">
<path d="M2695 2859 c-44 -3 52 -6 214 -7 162 -1 291 1 287 5 -9 9 -387 10
-501 2z"/>
<path d="M3470 2812 c0 -42 -3 -42 -520 -42 -477 0 -496 1 -507 19 -12 19 -14
19 -85 -6 -40 -14 -80 -31 -89 -39 -8 -8 -22 -15 -30 -15 -40 -4 88 -18 166
-18 57 -1 96 -6 103 -13 16 -16 15 -53 0 -65 -8 -6 -144 -13 -323 -16 -304 -6
-311 -7 -360 -31 -98 -49 -98 -49 -103 -279 -2 -111 -8 -210 -13 -219 -13 -24
-65 -24 -74 -1 -4 10 -9 71 -12 135 -4 70 -10 115 -15 112 -6 -4 -8 -18 -5
-31 3 -17 -4 -38 -19 -61 -25 -37 -31 -81 -14 -98 8 -8 11 -203 10 -600 l0
-589 -25 -22 c-20 -18 -24 -28 -19 -50 4 -16 13 -36 21 -45 8 -9 12 -22 8 -28
-4 -6 0 -22 9 -35 9 -13 16 -39 17 -57 0 -18 6 -51 13 -73 l13 -40 7 45 c4 25
11 112 14 194 6 127 10 150 25 160 13 8 20 8 26 -2 4 -7 11 -110 14 -228 7
-236 12 -255 66 -291 34 -23 36 -23 375 -23 354 0 366 -1 366 -41 0 -25 -20
-27 -370 -35 -375 -9 -336 -9 -385 0 l-40 6 45 -15 c26 -9 107 -20 190 -25 80
-5 159 -11 175 -14 17 -3 55 -8 85 -10 30 -2 87 -10 126 -17 67 -12 74 -11
100 7 27 18 52 19 444 21 405 2 470 -2 470 -29 0 -6 26 -7 73 -1 78 9 294 6
311 -5 6 -3 29 -7 50 -8 21 -1 49 -7 60 -12 12 -6 57 -16 100 -22 44 -7 86
-14 93 -17 23 -9 14 11 -28 62 -23 28 -47 58 -55 69 -12 18 -30 19 -338 18
-318 -1 -326 -1 -337 19 -8 15 -7 24 2 35 9 12 67 14 341 14 l330 0 71 -67
c40 -37 86 -80 102 -95 l31 -28 102 95 102 95 145 0 c161 0 185 6 217 58 21
34 22 45 25 486 2 248 6 461 9 474 3 15 11 22 22 20 15 -3 18 -24 23 -178 9
-247 11 -759 3 -798 -9 -43 -69 -106 -117 -122 -24 -7 -85 -10 -170 -8 -100 2
-138 0 -150 -10 -24 -20 -100 -122 -95 -127 2 -2 31 0 64 5 32 5 91 12 129 15
39 4 75 11 82 17 7 5 16 7 21 4 12 -7 142 24 142 35 0 5 3 8 8 8 25 -5 90 36
109 70 30 52 35 87 33 206 -2 123 -2 320 0 320 1 0 3 36 6 80 3 51 10 85 20
96 10 11 15 41 17 88 2 58 5 72 20 77 10 3 17 11 16 17 -2 10 5 44 16 82 1 6
3 13 5 17 15 53 28 129 27 167 0 27 2 52 5 57 3 5 3 77 1 159 -2 83 -3 156 -3
163 5 80 -4 218 -18 252 -11 28 -12 34 -12 54 0 8 -9 18 -21 21 -16 5 -19 12
-15 30 4 16 -5 45 -28 89 -19 37 -36 76 -38 88 -5 34 -25 32 -32 -3 -3 -17 -6
-100 -6 -183 0 -159 -4 -176 -45 -176 -42 0 -45 14 -45 219 0 209 -4 229 -50
263 -24 18 -59 19 -645 24 -544 5 -622 8 -637 21 -22 20 -23 37 -2 57 12 13
41 16 147 17 73 0 152 4 176 7 37 6 42 9 29 20 -8 6 -35 12 -59 13 -85 1 -144
18 -174 49 -33 34 -45 38 -45 12z m-1037 -342 c67 -25 153 -103 186 -168 48
-94 64 -237 40 -354 -12 -59 -58 -149 -96 -190 -25 -26 -25 -28 -9 -62 20 -42
20 -59 1 -96 -16 -32 -61 -60 -94 -60 -33 0 -74 23 -109 63 -32 35 -38 37 -92
37 -60 0 -176 31 -217 57 -22 15 -33 53 -14 53 4 0 35 -14 67 -30 61 -32 170
-54 212 -43 18 4 34 -6 77 -46 60 -57 94 -65 119 -29 21 30 20 56 -4 96 l-21
34 40 43 c101 109 134 279 86 439 -30 100 -85 166 -178 214 -46 24 -63 27
-152 27 -87 0 -107 -3 -155 -26 -109 -51 -170 -138 -197 -281 -17 -91 -7 -189
28 -267 12 -28 16 -48 10 -54 -58 -58 -117 237 -76 378 23 81 49 129 97 181
40 43 119 89 181 105 58 15 207 3 270 -21z m509 -9 l28 -31 0 -225 c0 -246 5
-277 54 -309 64 -41 149 -25 186 36 18 30 20 50 20 255 0 122 4 233 10 247 12
32 65 66 103 66 43 0 83 -25 101 -65 15 -30 17 -67 14 -278 -3 -238 -3 -243
-29 -298 -67 -143 -220 -223 -382 -200 -122 17 -209 81 -267 195 -29 58 -30
63 -30 208 0 141 1 148 20 148 19 0 20 -7 20 -137 0 -131 1 -141 29 -198 31
-66 98 -135 158 -161 59 -26 195 -25 254 3 61 27 119 86 152 153 l27 54 0 246
c0 206 -3 249 -16 268 -18 27 -69 30 -96 5 -16 -15 -18 -36 -18 -243 0 -218
-1 -229 -23 -271 -35 -66 -76 -89 -156 -89 -75 0 -108 16 -146 72 -23 34 -24
42 -27 271 -3 215 -5 237 -22 256 -19 21 -61 28 -82 13 -21 -14 -34 -51 -34
-97 0 -32 -5 -47 -15 -52 -25 -9 -30 4 -28 70 2 57 5 65 39 96 33 30 40 33 82
28 35 -4 53 -12 74 -36z m788 24 c60 -31 61 -40 58 -421 l-3 -346 -35 -29
c-48 -40 -107 -40 -152 0 -30 27 -33 34 -33 93 0 56 2 63 20 63 17 0 21 -8 25
-56 6 -68 22 -89 66 -89 63 0 64 5 64 372 0 185 -4 338 -10 352 -12 33 -54 44
-89 25 l-26 -15 -5 -236 c-3 -130 -8 -240 -12 -243 -4 -4 -14 -5 -23 -2 -13 6
-15 38 -15 234 0 210 2 231 20 261 31 51 93 66 150 37z m798 -1 c33 -23 55
-72 49 -109 -5 -31 -32 -67 -265 -365 -76 -97 -87 -116 -66 -124 9 -3 71 -6
138 -6 108 0 126 -2 149 -20 65 -51 55 -148 -20 -188 -30 -17 -556 -17 -586 0
-54 28 -75 77 -58 130 17 50 208 288 232 288 10 0 19 -5 19 -11 0 -6 -45 -68
-100 -137 -104 -131 -116 -155 -106 -197 11 -45 32 -48 316 -47 257 2 266 2
283 23 25 32 22 77 -9 106 -25 23 -31 24 -172 23 -190 -1 -182 -2 -182 11 0 6
83 117 185 247 102 130 188 247 191 260 9 32 -14 82 -34 75 -9 -4 -13 -2 -9 4
5 8 -68 11 -250 9 -292 -2 -316 -6 -321 -63 -2 -24 3 -39 22 -58 25 -25 27
-25 185 -25 98 0 162 -4 166 -10 8 -14 -86 -134 -108 -138 -25 -5 -21 24 8 62
14 18 25 37 25 42 0 6 -36 8 -86 6 -123 -6 -188 4 -223 34 -55 46 -49 138 13
175 29 17 53 19 311 19 238 0 284 -2 303 -16z m-2195 -175 c20 -5 37 -16 37
-23 0 -10 -21 -13 -84 -12 -71 1 -89 -2 -113 -20 -49 -37 -67 -79 -71 -173 -3
-75 0 -92 20 -131 32 -63 77 -90 148 -90 109 0 170 74 170 205 -1 38 -7 87
-14 107 -14 40 -7 64 18 55 24 -10 49 -112 44 -181 -11 -135 -77 -213 -188
-223 -165 -15 -265 100 -246 281 17 160 133 246 279 205z m2612 -129 c5 -8 10
-684 6 -737 -1 -16 -43 -17 -59 -1 -17 17 -17 719 0 736 15 15 45 16 53 2z
m-2418 -746 c40 -30 57 -85 39 -127 -25 -60 -48 -72 -152 -75 l-94 -4 0 -68
c0 -60 -2 -69 -20 -75 -39 -12 -50 11 -50 104 0 47 5 93 10 101 7 11 37 16
122 20 l113 5 0 30 0 30 -281 3 c-302 2 -314 0 -299 -48 6 -18 14 -20 114 -20
72 0 113 -4 125 -13 16 -12 18 -37 16 -323 -1 -336 0 -340 52 -332 23 3 23 5
28 177 4 146 8 176 21 184 9 6 24 7 33 4 14 -6 16 -29 16 -190 0 -170 -2 -186
-20 -210 -30 -38 -80 -52 -122 -34 -18 8 -42 24 -53 37 -19 21 -20 38 -23 321
l-3 299 -80 0 c-95 0 -142 17 -163 59 -38 73 -3 146 79 165 11 2 142 3 292 3
259 -2 273 -3 300 -23z m288 2 c64 -27 65 -35 65 -428 0 -330 -1 -355 -19
-384 -40 -66 -142 -66 -182 0 -25 41 -27 157 -3 177 29 24 48 -1 54 -71 6 -70
25 -94 58 -74 16 10 17 38 17 354 0 316 -1 344 -17 354 -13 8 -23 8 -35 0 -16
-10 -18 -35 -21 -245 -2 -203 -4 -236 -18 -246 -12 -9 -22 -9 -35 -2 -18 9
-19 26 -19 250 0 267 4 289 63 314 41 18 50 18 92 1z m342 -5 c21 -14 46 -47
77 -108 49 -93 56 -130 30 -140 -27 -10 -45 9 -92 100 -36 72 -48 87 -67 87
-13 0 -27 -5 -31 -12 -10 -16 -12 -669 -2 -690 10 -21 39 -23 56 -6 8 8 12 66
12 194 0 146 3 184 15 194 31 26 51 0 150 -197 132 -261 118 -261 250 -3 79
155 105 196 122 198 37 5 43 -25 42 -208 -1 -109 2 -175 9 -182 6 -6 22 -8 36
-4 l26 6 -2 353 -3 352 -29 0 c-28 0 -33 -8 -99 -140 -204 -415 -205 -416
-240 -402 -9 3 -46 65 -83 138 -65 131 -65 132 -46 151 30 30 51 12 97 -81 21
-45 43 -81 47 -81 5 0 12 10 17 23 29 75 211 427 232 445 46 43 130 31 166
-24 16 -25 18 -58 21 -361 1 -204 -1 -349 -8 -372 -15 -56 -52 -86 -107 -86
-39 0 -49 5 -79 37 -34 37 -34 38 -34 135 l-1 98 -62 -120 c-54 -105 -67 -122
-100 -139 -33 -16 -45 -17 -77 -7 -43 13 -54 28 -125 169 -25 50 -49 92 -53
92 -4 0 -8 -44 -9 -97 -3 -113 -16 -140 -79 -162 -35 -12 -44 -12 -75 3 -69
32 -69 34 -69 421 0 385 2 399 63 429 42 21 66 20 104 -3z m1399 -35 c46 -46
48 -101 5 -148 l-29 -33 -164 -5 -163 -5 -3 -37 -3 -38 131 0 c150 0 178 -9
204 -64 14 -29 15 -43 6 -74 -18 -70 -34 -76 -194 -82 l-141 -5 0 -45 0 -45
163 -5 164 -5 29 -33 c43 -47 41 -102 -5 -148 l-34 -34 -236 0 -236 0 -32 29
c-26 23 -33 38 -37 82 -8 68 -1 109 21 122 31 20 48 -8 48 -79 0 -52 3 -65 19
-74 26 -13 406 -13 432 0 22 12 25 42 6 59 -8 6 -81 12 -193 13 l-179 3 0 115
0 115 159 5 c137 4 160 7 170 23 8 12 8 22 0 35 -10 15 -31 17 -164 20 -85 1
-158 7 -164 11 -7 6 -9 44 -6 108 l5 98 179 3 c112 1 185 7 193 13 19 17 16
47 -6 59 -30 15 -413 13 -434 -2 -15 -11 -17 -40 -19 -233 l-3 -220 -24 -3
c-13 -2 -28 1 -33 6 -6 6 -10 80 -10 184 1 304 -2 276 36 314 l34 34 237 0
237 0 34 -34z m-1109 -312 c-3 -3 -12 -4 -19 -1 -8 3 -5 6 6 6 11 1 17 -2 13
-5z"/>
<path d="M1467 1483 c-3 -16 -1 -32 4 -37 5 -6 9 4 9 27 0 44 -6 48 -13 10z"/>
<path d="M1469 1383 c0 -21 -2 -52 -5 -70 -2 -18 1 -35 6 -38 6 -4 10 22 10
69 0 76 -9 109 -11 39z"/>
<path d="M1473 1200 c0 -30 2 -43 4 -27 2 15 2 39 0 55 -2 15 -4 2 -4 -28z"/>
</g>
</svg>
